<?xml version="1.0" encoding="UTF-8"?>
<svg width="613px" height="92px" viewBox="0 0 613 92" version="1.1" xmlns="http://www.w3.org/2000/svg" xmlns:xlink="http://www.w3.org/1999/xlink">
    <!-- Generator: Sketch 52.5 (67469) - http://www.bohemiancoding.com/sketch -->
    <title>Group</title>
    <desc>Created with Sketch.</desc>
    <g id="Symbols" stroke="none" stroke-width="1" fill="none" fill-rule="evenodd">
        <g id="Modules/Newsletter" transform="translate(-433.000000, -159.000000)" fill-rule="nonzero">
            <g id="Group" transform="translate(433.000000, 159.000000)">
                <g id="Birb" transform="translate(0.129369, 0.753410)">
                    <path d="M88.1183713,74.7986106 L81.9598841,74.7986106 C81.6313375,74.7986106 81.3437792,74.5134345 81.3437792,74.1873364 C81.3437792,73.8612382 81.6313375,73.5760621 81.9598841,73.5760621 L88.1190117,73.5760621 C88.4475583,73.5760621 88.7351166,73.8612382 88.7351166,74.1873364 C88.7351166,74.5134345 88.4469179,74.7986106 88.1190117,74.7986106 L88.1183713,74.7986106 Z M83.6019765,1.42651969 L79.0855818,1.42651969 C78.7570352,1.42651969 78.4694769,1.14134364 78.4694769,0.815245455 C78.4694769,0.489147273 78.7570352,0.203971216 79.0855818,0.203971216 L83.6019765,0.203971216 C83.9305231,0.203971216 84.2180814,0.489147273 84.2180814,0.815245455 C84.2180814,1.14134364 83.9305231,1.42651969 83.6019765,1.42651969 Z M88.940058,1.42651969 L86.8868019,1.42651969 C86.5588958,1.42651969 86.2713375,1.14134364 86.2713375,0.815245455 C86.2713375,0.489147273 86.5588958,0.203971216 86.8868019,0.203971216 L88.940058,0.203971216 C89.2686046,0.203971216 89.5561629,0.489147273 89.5561629,0.815245455 C89.5561629,1.14134364 89.2686046,1.42651969 88.940058,1.42651969 Z" id="Shape" fill="#DDEBF7"></path>
                    <polygon id="Shape" fill="#9C452D" points="13.8380235 44.2272258 12.7704072 45.8577167 18.9295349 45.8577167 18.9295349 44.2272258"></polygon>
                    <path d="M50.7114534,49.6890506 C50.4238951,48.2216088 50.6704651,46.63204 51.5324997,45.3685694 L77.6484306,6.60380789 L77.4018606,6.1140212 L75.4715694,2.5269412 C75.0616867,1.75325728 73.99343,1.67141303 73.5009303,2.36389211 L44.593314,45.3276473 C43.7312795,46.5911179 43.4847095,48.1806867 43.7722678,49.6481285 C44.0591856,51.1155703 44.8802319,52.5018073 46.15343,53.3170527 C46.2770352,53.3982576 46.4416287,53.4801018 46.5639531,53.5613067 C46.6055818,53.5613067 46.64657,53.6022288 46.6875583,53.6022288 C46.8105231,53.684073 46.9751166,53.7243558 47.0980814,53.8062 C47.2620345,53.8874048 47.426628,53.928327 47.5495928,53.9692491 C47.5905811,53.9692491 47.6315694,53.9692491 47.6315694,54.0101712 C47.7961629,54.0510933 47.9601159,54.0913761 48.0837212,54.1322982 C48.2476743,54.1732203 48.4122678,54.1732203 48.5768613,54.213503 L48.6581974,54.213503 C48.9991883,54.2542765 49.3438345,54.2542765 49.6848254,54.213503 L49.7258137,54.213503 C49.8904072,54.213503 50.0543602,54.1732203 50.2189538,54.1322982 C49.8904072,54.0101712 49.6028489,53.8471221 49.315931,53.684073 C49.8904072,53.9692491 50.5475003,54.0101712 51.1629648,53.8062 L51.28657,53.7652779 C51.5734879,53.684073 51.820058,53.5613067 52.066628,53.4391797 L52.7237212,53.0318767 C51.6970932,52.2569139 50.9990117,50.9934433 50.7114534,49.6890506 Z" id="Shape" fill="#544463"></path>
                    <path d="M77.6484306,6.56288576 L51.5324997,45.3276473 C50.6704651,46.5911179 50.4245355,48.1806867 50.7114534,49.6481285 C50.9635898,50.9979416 51.6920789,52.2127776 52.7647095,53.0721594 L67.0952326,44.3084306 C80.0705811,36.4008694 84.6286046,19.9329112 77.6484306,6.56288576 Z" id="Shape" fill="#230545"></path>
                    <path d="M83.8075583,45.0424712 L65.8220345,62.896027 C65.7810462,62.9369491 65.740058,62.9369491 65.740058,62.9778712 C62.2086625,66.6058733 57.3630807,68.6027451 52.3541863,69.0106876 C52.9286625,69.0516097 53.5037792,69.0918924 54.0788958,69.0918924 L57.9381974,69.0918924 C63.6048254,69.0918924 69.1894769,67.0540985 73.1313954,62.9778712 C73.1723837,62.9369491 73.213372,62.9369491 73.213372,62.896027 L91.1988958,45.0424712 L83.8075583,45.0424712 Z" id="Shape" fill="#CDD6C5"></path>
                    <path d="M21.393314,40.5992236 L21.393314,52.7467006 C21.393314,53.8464827 22.0913954,54.8663388 23.2,55.1105927 C24.4731981,55.4366909 25.6637792,54.7026503 26.0743023,53.5619461 C26.0743023,53.5619461 28.7020345,45.8570773 30.0578496,41.8224115 L21.3926736,40.5992236 L21.393314,40.5992236 Z" id="Shape" fill="#230545"></path>
                    <path d="M43.566686,50.7491894 L43.6486625,50.7491894 L43.566686,50.7491894 Z" id="Shape" fill="#A09AA6"></path>
                    <path d="M37.2019765,38.3165364 L36.9970352,38.1125651 L34.9847674,40.1100764 C35.9294189,41.8626942 35.9294189,44.0641767 33.7115694,46.2650197 L31.453372,48.5074242 C29.5237212,50.4230912 29.5237212,53.5203845 31.453372,55.4769736 L39.0496508,63.0181539 L39.0496508,55.2742812 C39.0496508,54.2550646 39.2142443,53.27677 39.5018026,52.3393976 L41.1029068,53.2358479 C41.2265121,53.0727988 41.8009883,48.4671415 41.9239531,48.3443752 L46.3590117,43.9420497 C42.9107559,42.8020872 39.7756655,40.8763014 37.2019765,38.3171758 L37.2019765,38.3165364 Z" id="Shape" fill="#230545"></path>
                    <path d="M33.7115694,46.2650197 C36.7920939,43.2080091 35.5188958,40.1100764 33.5476163,38.3165364 L31.4943602,36.278103 C30.2627909,35.1367594 28.4970932,34.7294564 26.8543602,35.0146324 C25.6631387,35.2186036 24.5551746,35.5856239 23.4875583,36.1150539 C22.3789538,36.6860455 21.3113375,37.4194467 20.4076743,38.3165364 L18.9705231,39.7430561 L18.9705231,45.8583561 L19.586628,45.8583561 C21.5162788,45.8583561 22.1740124,46.1844543 23.8980814,47.89615 L30.673314,54.6220849 L33.7115694,46.2656591 L33.7115694,46.2650197 Z" id="Shape" fill="#97A090"></path>
                    <path d="M24.2676163,38.9278106 L23.44657,38.9278106 C21.8454658,38.9278106 20.5722678,40.1919206 20.5722678,41.7814894 C20.5722678,43.3710582 21.8448254,44.6345288 23.44657,44.6345288 L24.2676163,44.6345288 C25.8687205,44.6345288 27.1419186,43.3710582 27.1419186,41.7814894 C27.1419186,40.1919206 25.8277322,38.9278106 24.2676163,38.9278106 Z" id="Shape" fill="#E5E8DF"></path>
                    <path d="M31.2484306,55.2327197 C31.0428489,55.2327197 30.7962788,55.2327197 30.5913375,55.1515149 C29.5236908,54.8606467 28.7834776,53.8918799 28.7846515,52.7869833 L28.7846515,40.6407852 C28.7846515,38.39902 26.9363368,36.5645579 24.6781394,36.5645579 L23.44657,36.5645579 L19.7512215,34.0778994 C19.7512215,31.9991834 21.3523257,30.2056434 23.44657,30.0425943 C23.6105231,30.0425943 23.8161049,30.0016721 23.980058,30.0016721 L33.3010462,30.0016721 C36.4629068,30.0016721 39.0496508,32.5695355 39.0496508,35.7083903 L39.0496508,36.9315782 C39.0496508,38.6023518 38.7627329,40.3140476 38.2286046,41.9042558 C36.87343,45.980483 34.2450573,53.6437903 34.2450573,53.6437903 C33.9171511,54.5811627 33.0551166,55.2333591 32.0694769,55.2742812 L31.2484306,55.2742812 L31.2484306,55.2333591 L31.2484306,55.2327197 Z" id="Shape" fill="#9C452D"></path>
                    <path d="M25.4991856,32.0394661 C25.6637792,32.0394661 25.8687205,31.9985439 26.033314,31.9985439 L35.3543023,31.9985439 C36.4219186,31.9985439 37.4075583,32.28372 38.2695928,32.7728673 C37.2297286,31.0224314 35.3394759,29.9523356 33.3010462,29.9601106 L23.980058,29.9601106 C23.8161049,29.9601106 23.6515114,29.9601106 23.44657,30.0010327 C21.3523257,30.1640818 19.7512215,31.9576218 19.7512215,34.0363379 L21.8454658,35.4628576 C22.1323837,33.6290349 23.6105231,32.2018758 25.4991856,32.0388267 L25.4991856,32.0394661 Z" id="Shape" fill="#B37624"></path>
                    <path d="M40.5284306,41.0474488 C40.4458137,41.3332642 40.3638371,41.5775182 40.2818606,41.8626942 C40.2408723,41.9445385 40.2408723,41.9848212 40.1998841,42.0666655 C39.4608144,44.2272258 40.6097667,46.63204 42.8276163,47.3654412 L42.8686046,47.3654412 L46.3590117,43.9011276 C44.3057557,43.2080091 42.3351166,42.2706367 40.5284306,41.0474488 Z" id="Shape" fill="#544463"></path>
                    <path d="M20.449303,48.5067848 C20.3703618,48.2220557 20.2300317,47.9579973 20.0381394,47.7331009 L9.23901173,37.0115042 C8.95145342,36.7263282 8.5409303,36.5632791 8.17139545,36.522357 C7.70585058,36.4786462 7.24756301,36.6605715 6.93918565,37.0115042 L0.493140097,43.4119803 C0.178140986,43.7166944 0.000329451822,44.1358864 0.000329451822,44.573785 C0.000329451822,45.0116836 0.178140986,45.4308756 0.493140097,45.7355897 L11.2929082,56.4559076 C11.601645,56.7687072 12.0231332,56.9448247 12.4629952,56.9448247 C12.9028571,56.9448247 13.3243453,56.7687072 13.6330821,56.4559076 L20.0797681,50.0560709 C20.449303,49.6487679 20.5729082,49.0368542 20.449303,48.5074242 L20.449303,48.5067848 Z" id="Shape" fill="#F1A031"></path>
                    <path d="M20.449303,48.5067848 C20.3703618,48.2220557 20.2300317,47.9579973 20.0381394,47.7331009 L9.23901173,37.0115042 C8.95145342,36.7263282 8.5409303,36.5632791 8.17139545,36.522357 L9.52657005,47.446646 L20.4486625,48.5067848 L20.449303,48.5067848 Z" id="Shape" fill="#FFC680"></path>
                    <ellipse id="Oval" fill="#230545" cx="23.0360469" cy="41.7814894" rx="1.23156936" ry="1.22318789"></ellipse>
                    <path d="M52.3131981,69.0106876 C57.3637212,68.6027451 62.2086625,66.6058733 65.6990697,62.9778712 C65.740058,62.9369491 65.7810462,62.9369491 65.7810462,62.896027 L81.5077322,47.2842364 L67.1362208,49.7299727 L64.4675003,53.1949258 L42.7456398,53.1949258 L39.0502912,56.8632106 L39.0502912,62.9778712 C42.6220345,66.483107 47.344011,68.6027451 52.3131981,69.0106876 Z" id="Shape" fill="#CDD6C5"></path>
                    <path d="M55.1868599,66.1570088 C60.2380235,65.7497058 65.0829648,63.7521945 68.573372,60.1241924 C68.6143602,60.0832703 68.6553485,60.0832703 68.6553485,60.0429876 L77.6068019,51.1564924 C79.7010462,49.0777764 77.853372,45.5316185 74.9380814,46.0207658 L70.0105231,46.8762939 L67.3418026,50.3418864 L45.619942,50.3418864 L41.9245935,54.0101712 L41.9245935,60.1241924 C45.4963368,63.6300676 50.2183133,65.7497058 55.1875003,66.1570088 L55.1868599,66.1570088 Z" id="Shape" fill="#E5E8DF"></path>
                    <path d="M39.8713375,34.4442803 C39.8713375,33.7511618 39.3372091,33.2210924 38.6391277,33.2210924 L22.2143602,33.2210924 L22.2143602,36.4820742 L38.6391277,36.4820742 C39.3372091,36.4820742 39.8713375,35.9526442 39.8713375,35.2595258 L39.8713375,34.4442803 Z" id="Shape" fill="#230545"></path>
                    <path d="M33.3010462,44.2272258 C31.699942,44.2272258 30.426744,42.9637552 30.426744,41.373547 C30.426744,39.7839782 31.699942,38.5205076 33.3010462,38.5205076 C34.8618026,38.5205076 36.1753485,39.7839782 36.1753485,41.373547 C36.1753485,42.9631158 34.8618026,44.2272258 33.3010462,44.2272258 Z" id="Shape" fill="#B37624"></path>
                    <path d="M33.3010462,43.0040379 C32.3977781,43.0037017 31.664236,42.2753421 31.6589538,41.373547 C31.676617,40.4805498 32.4067515,39.7658467 33.3013665,39.7658467 C34.1959814,39.7658467 34.9261159,40.4805498 34.9437792,41.373547 C34.9384954,42.2755915 34.2045642,43.0040533 33.3010462,43.0040379 Z" id="Shape" fill="#230545"></path>
                    <path d="M16.5477322,40.6810679 C16.1387812,41.0055935 15.7671835,41.374447 15.4397681,41.78085 C15.3571511,41.9036164 15.2751746,41.9854606 15.1931981,42.1069482 L13.7970352,44.2272258 L18.8885466,44.2272258 L18.8885466,39.7839782 C18.0675003,39.8249003 17.2458137,40.1509985 16.5477322,40.6810679 Z" id="Shape" fill="#DE5833"></path>
                    <polygon id="Shape" fill="#7F8C76" points="78.0589538 45.0424712 78.0589538 50.341247 78.1409303 50.4230912 89.3505811 46.4689909 90.7877322 45.0424712"></polygon>
                    <path d="M78.4694769,50.341247 L78.4694769,45.0424712 L53.8323257,45.0424712 C53.8323257,45.0424712 49.3152905,44.6345288 48.6172091,44.5124018 C47.8533813,44.351952 47.0994086,44.1478582 46.3590117,43.9011276 C46.1540704,43.8192833 45.9484886,43.7380785 45.7429068,43.6971564 L41.3084886,48.0994818 C39.4608144,49.9339439 38.6391277,52.4206024 38.6391277,55.0293879 L38.6391277,62.366597 L39.0496508,62.9778712 C40.1588958,64.0782927 41.4320939,65.0565873 42.7449993,65.8718327 L42.7449993,57.2302309 L42.7449993,57.1893088 C42.7449993,54.9475436 44.6752905,53.1949258 46.8924997,53.1949258 L64.4675003,53.1949258 C68.537147,53.1942196 72.5772483,52.5049845 76.4162208,51.1564924 L78.5104651,50.4230912 L78.4694769,50.341247 Z" id="Shape" fill="#97A090"></path>
                    <path d="M54.0788958,45.0424712 C53.6677322,45.8986388 53.4218026,46.8360112 53.4218026,47.8143058 C53.4218026,49.4857188 54.0788958,51.1974145 55.43343,52.4206024 C56.1117764,53.0057211 57.0086767,53.2727043 57.8972091,53.1540036 L58.0618026,53.1130815 C58.4076388,53.0647568 58.7504118,52.9966544 59.0884306,52.9091103 L79.3315114,46.0610485 C80.2761629,45.7349503 81.1791856,45.4088521 82.0828489,45.0015491 L54.0788958,45.0015491 L54.0788958,45.0424712 Z" id="Shape" fill="#7F8C76"></path>
                    <path d="M57.9381974,45.8577167 C59.8275003,45.8577167 62.2086625,47.5694124 63.0297088,49.4857188 L72.0637792,71.0894036 C72.3513375,71.7825221 72.3923257,72.4347185 72.1457557,72.7608167 C71.8991856,73.0869149 71.3656977,73.1681197 71.0781394,73.1681197 L63.2762788,73.1681197 C61.3876163,73.1681197 59.0058137,71.4564239 58.1847674,69.540757 L51.4095349,54.1732203 C50.5884886,52.2978361 50.7524417,50.2600421 51.8610462,48.5886291 C52.9696508,46.9172161 54.7763368,45.9389215 56.8295928,45.9389215 L57.9381974,45.9389215 L57.9381974,45.8577167 Z M57.9381974,43.8192833 L56.7886046,43.8192833 C51.04,43.8192833 47.1390697,49.6890506 49.4798841,54.9475436 L56.2551166,70.3150803 C57.3630807,73.0050706 60.5255818,75.206553 63.235931,75.206553 L71.0371511,75.206553 C73.7475003,75.206553 75.0610462,73.0050706 73.9114534,70.3150803 L64.8780235,48.7101166 C63.8104072,46.0201264 60.6485466,43.8186439 57.9381974,43.8186439 L57.9381974,43.8192833 Z" id="Shape" fill="#230545"></path>
                    <path d="M55.0229068,60.1241924 L78.4694769,60.1241924 C78.4694769,59.4719961 77.9353485,58.9016439 77.2372671,58.9016439 L53.790697,58.9016439 L55.0229068,60.1241924 Z" id="Shape" fill="#9C452D"></path>
                    <path d="M75.8001159,67.0540985 L78.4284886,60.5724176 C78.4694769,60.4093685 78.5104651,60.2872415 78.5104651,60.1248318 L54.9409303,60.1248318 C54.4041772,60.1265508 53.9198417,60.4467419 53.7087205,60.9394379 L51.2455818,67.0540985 L75.8001159,67.0540985 Z" id="Shape" fill="#230545"></path>
                    <path d="M76.4572091,85.3968015 C78.63343,85.3968015 80.1941863,83.3590076 79.6190697,81.2796521 L79.4961049,80.9132712 L75.7591277,67.0540985 L51.1219765,67.0540985 L54.8589538,80.9132712 L55.3924417,82.9919873 C55.7619765,84.418507 57.0761629,85.3968015 58.5543023,85.3968015 L76.4572091,85.3968015 Z" id="Shape" fill="#9C452D"></path>
                    <path d="M61.9627329,81.2802915 L58.1437792,67.0534591 L51.2455818,67.0534591 L53.7087205,60.9394379 C53.9196461,60.4464915 54.4040239,60.1260211 54.9409303,60.1241924 L55.0229068,60.1241924 L53.7913375,58.9016439 L53.7087205,58.9016439 C53.172047,58.9037274 52.6879847,59.2241557 52.4771511,59.7168894 L50.0543602,65.7087836 C49.7258137,66.5649512 49.6444776,67.5432458 49.8904072,68.4396961 L53.790697,82.9919873 C54.1608723,84.418507 55.4750587,85.3968015 56.9531981,85.3968015 L58.7592436,85.3968015 C60.9361049,85.3968015 62.4962208,83.3590076 61.9627329,81.2802915 Z" id="Shape" fill="#B37624"></path>
                    <path d="M56.9531981,84.174253 C56.0085466,84.174253 55.2284886,83.5629788 54.9819186,82.6658891 L51.1219765,68.3175691 L57.1997681,68.3175691 L60.7715114,81.6466724 C60.9361049,82.2585861 60.8124997,82.9107824 60.4019765,83.3999297 C59.9920939,83.889077 59.4163368,84.2151752 58.7598841,84.2151752 L56.9531981,84.2151752 L56.9531981,84.174253 Z" id="Shape" fill="#9C452D"></path>
                    <path d="M56.2551166,69.4998349 L59.5809303,81.9318485 C59.6629068,82.2579467 59.539942,82.50284 59.4579655,82.624967 C59.3753485,82.7470939 59.1697667,82.9510651 58.8008723,82.9510651 L56.9941863,82.9510651 C56.6246515,82.9510651 56.2961049,82.7068112 56.2134879,82.3397909 L52.7647095,69.4998349 L56.2551166,69.4998349 Z M58.1437792,67.0540985 L49.9313954,67.0540985 L49.8904072,68.4396961 L53.790697,82.9919873 C54.1608723,84.418507 55.4750587,85.3968015 56.9531981,85.3968015 L58.7592436,85.3968015 C60.9361049,85.3968015 62.4962208,83.3590076 61.9211042,81.2796521 L58.1437792,67.0540985 Z" id="Shape" fill="#B37624"></path>
                    <path d="M74.1580235,74.3913076 L72.9258137,74.3913076 C72.6534939,74.3947496 72.3912383,74.2886609 72.1981223,74.0969391 C72.0050063,73.9052173 71.8972714,73.6439863 71.8991856,73.3720909 C71.8991856,72.8017388 72.3513375,72.3528742 72.9258137,72.3528742 L74.1580235,72.3528742 C74.7324997,72.3528742 75.1846515,72.8010994 75.1846515,73.3720909 C75.1846515,73.9430824 74.6915114,74.3913076 74.1580235,74.3913076 Z M66.3561629,74.3913076 L65.1239531,74.3913076 C64.8517436,74.3945764 64.5896543,74.2884113 64.3966779,74.0967085 C64.2037016,73.9050057 64.0960541,73.6438741 64.0979655,73.3720909 C64.0979655,72.8017388 64.5494769,72.3528742 65.1239531,72.3528742 L66.3561629,72.3528742 C66.9312795,72.3528742 67.3827909,72.8010994 67.3827909,73.3720909 C67.3827909,73.9430824 66.8896508,74.3913076 66.3561629,74.3913076 Z" id="Shape" fill="#E5E8DF"></path>
                    <path d="M74.8970932,59.6759673 L70.0515114,54.8656994 C69.5583713,54.3771915 68.7789538,54.3771915 68.3268019,54.8656994 L60.1970352,62.9369491 C59.7038951,63.4260964 59.7038951,64.2004197 60.1970352,64.6492842 L62.6191856,67.0534591 L69.1894769,67.0534591 L74.8970932,61.3883024 C75.1020345,61.1836918 75.2256398,60.8991552 75.266628,60.573057 C75.3076163,60.2469588 75.1846515,59.9208606 74.8970932,59.6759673 Z" id="Shape" fill="#E37151"></path>
                    <path d="M69.2304651,67.0540985 L74.9380814,61.387663 C75.1430228,61.1843312 75.266628,60.8985158 75.3076163,60.5724176 L67.0542443,61.5916342 L66.3561629,67.0131764 L69.2304651,67.0131764 L69.2304651,67.0540985 Z" id="Shape" fill="#DE5833"></path>
                    <path d="M92.019942,6.72593485 C91.5299089,6.23669098 90.8652804,5.96183651 90.1722678,5.96183651 C89.4792552,5.96183651 88.8146267,6.23669098 88.3245935,6.72593485 L53.0106391,41.7814894 C51.9539374,42.8758359 51.3650508,44.337651 51.3685466,45.8577167 C51.3685466,47.3660806 51.9020345,48.8738051 53.0112795,49.9339439 C53.1342443,50.0560709 53.2572091,50.1781979 53.3808144,50.2600421 C53.4218026,50.3009642 53.4627909,50.3009642 53.4627909,50.341247 C53.5857557,50.4230912 53.7087205,50.5452182 53.8323257,50.6270624 C53.9552905,50.7082673 54.1198841,50.7894721 54.2428489,50.8713164 C54.2838371,50.8713164 54.2838371,50.9122385 54.3248254,50.9122385 C54.4484306,50.9934433 54.6123837,51.0752876 54.7763368,51.1162097 C54.9409303,51.1974145 55.1048834,51.2376973 55.2694769,51.2786194 L55.3514534,51.2786194 C55.68,51.3604636 56.0085466,51.4416685 56.3370932,51.48323 L56.3780814,51.48323 C56.5420345,51.48323 56.706628,51.5235127 56.9115694,51.5235127 C56.5420345,51.2786194 56.2134879,51.0343655 55.8855818,50.7082673 C54.8286461,49.6140223 54.239525,48.1521951 54.2428489,46.63204 C54.2428489,45.1236761 54.8179655,43.6562342 55.8855818,42.5558127 L92.0193016,6.72593485 L92.019942,6.72593485 Z" id="Shape" fill="#97A090"></path>
                    <path d="M93.2515114,10.8021621 C93.1610291,10.4165081 93.0513779,10.035589 92.9229648,9.66081849 L92.019942,6.72593485 L80.5227329,18.1393712 L55.8849413,42.5967349 C54.8282397,43.6910814 54.2393531,45.1528965 54.2428489,46.6729621 C54.2428489,48.1813261 54.7763368,49.6890506 55.8855818,50.7491894 C56.410921,51.2787552 57.1604664,51.5217678 57.8972091,51.4013858 L58.0208144,51.4013858 C58.3077322,51.3604636 58.5952905,51.3195415 58.8418606,51.2383367 L75.3076163,45.1645982 C86.5172671,41.0474488 93.6626749,30.7350733 94.1961629,19.5249688 C94.2781394,18.2205761 94.1551746,16.8759006 93.9912215,15.5715079 L93.2515114,10.8015227 L93.2515114,10.8021621 Z" id="Shape" fill="#E5E8DF"></path>
                    <path d="M59.1704072,46.6729621 C59.1704072,45.1645982 59.7448834,43.6971564 60.8124997,42.5967349 L85.4502912,18.1393712 L93.1695349,10.4760639 C93.0875583,10.1902485 93.0055818,9.90507242 92.9229648,9.66081849 L92.019942,6.72593485 L80.5227329,18.1393712 L55.8849413,42.5967349 C54.8282397,43.6910814 54.2393531,45.1528965 54.2428489,46.6729621 C54.2428489,48.1813261 54.7763368,49.6890506 55.8855818,50.7491894 C56.410921,51.2787552 57.1604664,51.5217678 57.8972091,51.4013858 L58.0208144,51.4013858 C58.3077322,51.3604636 58.5952905,51.3195415 58.8418606,51.2383367 L60.6479061,50.5861403 C59.6629068,49.5260015 59.1704072,48.0994818 59.1704072,46.6729621 Z" id="Shape" fill="#CDD6C5"></path>
                    <g id="Group" transform="translate(73.650794, 23.018695)" fill="#CDD6C5">
                        <path d="M10.6492643,4.45539634 C11.4703106,3.23220845 12.168392,1.92781572 12.6205438,0.378529654 L12.4559503,0.216119971 L10.8958344,1.68292238 L9.37670669,3.19192573 L6.29682264,6.16709209 L3.29955556,9.22410269 L1.77978744,10.7324666 L0.301648033,12.2817527 L0.466241546,12.4448018 C2.02635749,11.9959372 3.34054382,11.3034582 4.57211318,10.4882127 C5.80432298,9.67296724 6.87129883,8.77587754 7.89792685,7.75666087 C8.92455487,6.77836632 9.82821808,5.67794481 10.6492643,4.45539634 Z M12.251009,8.53162361 L11.224381,9.50991815 L9.17112491,11.50679 L7.15885714,13.5452233 L6.17385783,14.56444 L5.18757764,15.5830172 L5.31118288,15.7057836 C6.41978744,15.4608903 7.28246239,15.0126651 8.14449689,14.4825957 C8.96554313,13.9525263 9.70525328,13.3412521 10.4026943,12.6890557 C11.0597874,12.0368594 11.6758923,11.262536 12.2100207,10.4472906 C12.7435086,9.63204512 13.19502,8.73495542 13.4415901,7.6345339 L13.3186253,7.51240694 L12.251009,8.5309842 L12.251009,8.53162361 Z" id="Shape"></path>
                    </g>
                    <g id="Group" transform="translate(78.133885, 37.725084)">
                        <path d="M27.8060566,2.01797228 L22.7555335,3.68938531 C15.5263557,6.09494518 7.9557256,7.32002693 0.335591442,7.31738744 L6.084196,13.0241056 L12.0383823,18.9341556 L24.3156494,6.74703532 C25.7118123,5.36079835 26.8614051,3.77059015 27.8060566,2.01797228 Z" id="Shape" fill="#97A090"></path>
                        <path d="M33.1851263,0.265354403 L27.8054161,2.0588944 C26.8863996,3.80093521 25.7099638,5.39493487 24.3156494,6.78731804 L12.0383823,18.9341556 L13.1879752,20.0761387 C14.0500097,20.9316668 15.0356494,21.5020189 16.1032657,21.8690392 L27.8060566,10.2522711 C30.5300986,7.51372576 32.3988155,4.04421866 33.1851263,0.265354403 Z" id="Shape" fill="#544463"></path>
                    </g>
                    <path d="M107.869593,48.303453 L108.608663,47.8143058 C112.263663,45.3685694 114.521861,41.3332642 114.562849,36.9712215 L114.562849,36.8900167 L110.456337,38.2346921 C109.594302,41.6593624 107.787616,44.7975779 105.241861,47.3251585 L93.2924997,59.18682 C96.0438371,60.4912127 99.4112795,60.0429876 101.710465,57.7603003 L108.732268,50.7901115 C108.978197,50.5452182 109.265756,50.2594027 109.471337,49.9742267 L107.870233,48.303453 L107.869593,48.303453 Z" id="Shape" fill="#230545"></path>
                    <path d="M111.11343,16.1009379 L100.848431,16.1009379 C100.519884,16.1009379 100.232326,15.8157618 100.232326,15.4896636 C100.232326,15.1635655 100.519884,14.8783894 100.848431,14.8783894 L111.11343,14.8783894 C111.441977,14.8783894 111.729535,15.1635655 111.729535,15.4896636 C111.729535,15.8157618 111.441977,16.1009379 111.11343,16.1009379 Z M97.1524417,78.8748379 L86.8868019,78.8748379 C86.5588958,78.8748379 86.2713375,78.5896618 86.2713375,78.2635636 C86.2713375,77.9374655 86.5588958,77.6522894 86.8868019,77.6522894 L97.1530821,77.6522894 C97.4809883,77.6522894 97.7679061,77.9374655 97.7679061,78.2635636 C97.7679061,78.5896618 97.4809883,78.8748379 97.1530821,78.8748379 L97.1524417,78.8748379 Z M47.4676163,23.8460894 L37.2019765,23.8460894 C36.87343,23.8460894 36.5865121,23.5602739 36.5865121,23.2348152 C36.5865121,22.908717 36.87343,22.6229015 37.2019765,22.6229015 L47.4676163,22.6229015 C47.7961629,22.6229015 48.0837212,22.908717 48.0837212,23.2341758 C48.0837212,23.5602739 47.7955224,23.8460894 47.4676163,23.8460894 Z M36.7914534,26.6991288 L33.5059876,26.6991288 C33.1780814,26.6991288 32.8911636,26.4139527 32.8911636,26.0878545 C32.8911636,25.7617564 33.1780814,25.4765803 33.5059876,25.4765803 L36.7914534,25.4765803 C37.12,25.4765803 37.4075583,25.7617564 37.4075583,26.0878545 C37.4075583,26.4139527 37.12,26.6991288 36.7914534,26.6991288 Z M116.451511,16.1009379 L114.398896,16.1009379 C114.070349,16.1009379 113.782791,15.8157618 113.782791,15.4896636 C113.782791,15.1635655 114.070349,14.8783894 114.398896,14.8783894 L116.451511,14.8783894 C116.780058,14.8783894 117.067616,15.1635655 117.067616,15.4896636 C117.067616,15.8157618 116.780058,16.1009379 116.451511,16.1009379 Z M123.842849,41.7814894 L119.325814,41.7814894 C118.997267,41.7814894 118.710349,41.4956739 118.710349,41.1702152 C118.710349,40.844117 118.997267,40.5583015 119.325814,40.5583015 L123.842849,40.5583015 C124.171395,40.5583015 124.458954,40.844117 124.458954,41.1702152 C124.458954,41.4963133 124.170755,41.7814894 123.842849,41.7814894 Z M106.597035,62.5699288 L103.722733,62.5699288 C103.394186,62.5699288 103.106628,62.2847527 103.106628,61.9586545 C103.106628,61.6325564 103.394186,61.3473803 103.722733,61.3473803 L106.597035,61.3473803 C106.925582,61.3473803 107.2125,61.6325564 107.2125,61.9586545 C107.2125,62.2847527 106.925582,62.5699288 106.597035,62.5699288 Z M45.8248834,36.4820742 L42.9505811,36.4820742 C42.6220345,36.4820742 42.3351166,36.1968982 42.3351166,35.8708 C42.3351166,35.5447018 42.6220345,35.2595258 42.9505811,35.2595258 L45.8248834,35.2595258 C46.15343,35.2595258 46.4409883,35.5447018 46.4409883,35.8708 C46.4409883,36.1968982 46.15343,36.4820742 45.8248834,36.4820742 Z M24.8837212,63.3851742 L22.0094189,63.3851742 C21.6808723,63.3851742 21.393314,63.0999982 21.393314,62.7739 C21.393314,62.4478018 21.6808723,62.1626258 22.0094189,62.1626258 L24.8837212,62.1626258 C25.2122678,62.1626258 25.4991856,62.4478018 25.4991856,62.7739 C25.4991856,63.0999982 25.2122678,63.3851742 24.8837212,63.3851742 Z M22.0094189,60.1241924 L17.4923837,60.1241924 C17.1638371,60.1241924 16.8762788,59.8390164 16.8762788,59.5129182 C16.8762788,59.18682 17.1644776,58.9016439 17.4923837,58.9016439 L22.0094189,58.9016439 C22.3379655,58.9016439 22.6248834,59.18682 22.6248834,59.5129182 C22.6248834,59.8390164 22.3379655,60.1241924 22.0094189,60.1241924 Z M118.915291,46.2650197 L117.683721,46.2650197 C117.355175,46.2650197 117.067616,45.9798436 117.067616,45.6537455 C117.067616,45.3276473 117.355175,45.0424712 117.683721,45.0424712 L118.915291,45.0424712 C119.243837,45.0424712 119.531395,45.3276473 119.531395,45.6537455 C119.531395,45.9798436 119.243837,46.2650197 118.915291,46.2650197 Z" id="Shape" fill="#DDEBF7"></path>
                    <g id="Group" transform="translate(17.932367, 31.970410)">
                        <path d="M5.30926156,0.435436984 L2.84484196,0.435436984 C1.81003621,0.43830294 0.889143014,1.09136373 0.545656315,2.06592789 L1.20274948,2.06592789 C1.57228433,2.06592789 1.90083092,2.26989911 2.02379572,2.59599729 C2.18774879,3.1663494 1.77722567,3.6964188 1.24373775,3.6964188 L0.586644582,3.6964188 C0.930131282,4.67098297 1.85102448,5.32404376 2.88583023,5.32690971 L5.26763285,5.32690971 C6.41722567,5.32690971 7.48484196,4.55258638 7.73141201,3.45216487 C8.05995859,1.86195668 6.82838923,0.435436984 5.30862112,0.435436984 L5.30926156,0.435436984 Z" id="Shape" fill="#230545"></path>
                        <path d="M1.16112077,2.06592789 L0.504668047,2.06592789 C0.42205107,2.31082123 0.340074534,2.59599729 0.340074534,2.88117335 C0.340074534,3.1663494 0.381062802,3.45216487 0.504668047,3.6964188 L1.16112077,3.6964188 C1.69524914,3.6964188 2.10577226,3.1663494 1.94181919,2.59599729 C1.85920221,2.26989911 1.53129607,2.06592789 1.16112077,2.06592789 Z" id="Shape" fill="#FFFFFF"></path>
                    </g>
                    <path d="M23.44657,35.6668288 L22.6248834,35.6668288 C22.1731771,35.6668355 21.8063035,35.302554 21.8038371,34.8515833 C21.8038371,34.4033582 22.173372,34.0363379 22.6248834,34.0363379 L23.44657,34.0363379 C23.8980814,34.0363379 24.2676163,34.4033582 24.2676163,34.8515833 C24.2676163,35.3004479 23.8980814,35.6668288 23.44657,35.6668288 Z" id="Shape" fill="#FFFFFF"></path>
                    <g id="Group" transform="translate(40.988268, 44.758574)" fill="#7F8C76">
                        <path d="M48.6498716,3.13693663 L47.9108019,3.87097724 C47.5002788,4.27828026 46.8841739,4.27828026 46.4736508,3.87097724 L48.6498716,1.71041693 C49.0603948,2.11771996 49.0603948,2.7296336 48.6498716,3.13693663 Z M6.35638371,2.7296336 L5.61731401,3.46303481 C5.20615045,3.87097724 4.59068599,3.87097724 4.18016287,3.46303481 L6.35638371,1.3024745 C6.76626639,1.71041693 6.76626639,2.32169117 6.35638371,2.7296336 Z M3.07091787,5.99061542 L1.92132505,6.72401663 C1.51144237,7.13195906 0.894697032,7.13195906 0.484173913,6.72401663 L2.66039476,4.56409573 C3.07091787,4.97139875 3.48208144,5.58267299 3.07091787,5.98997601 L3.07091787,5.99061542 Z M51.934697,5.99061542 L51.1956273,6.72401663 C50.7857447,7.13195906 50.1689993,7.13195906 49.7584762,6.72401663 L51.934697,4.56409573 C52.3452202,4.97139875 52.3452202,5.58267299 51.934697,5.98997601 L51.934697,5.99061542 Z M55.2201629,1.91438815 L54.4804527,2.64778935 C54.07057,3.05573179 53.4544651,3.05573179 53.0433016,2.64778935 L55.2201629,0.487229048 C55.6300455,0.89517148 55.6300455,1.50644572 55.2201629,1.91438815 Z" id="Shape"></path>
                    </g>
                </g>
                <g id="Letters" transform="translate(444.000000, 17.000000)">
                    <path d="M157.75873,15.9330636 L150.244428,23.3923996 C149.935667,23.7053974 149.514041,23.8816413 149.074021,23.8816413 C148.634001,23.8816413 148.212374,23.7053974 147.903614,23.3923996 L135.461753,11.0415908 C135.146754,10.7368767 134.968942,10.3176847 134.968942,9.87978614 C134.968942,9.44188756 135.146754,9.02269557 135.461753,8.71798144 L142.976055,1.25864538 C143.304602,0.932547201 143.756113,0.769498111 144.208265,0.769498111 C144.618148,0.769498111 144.988323,0.932547201 145.275881,1.25864538 L157.717742,13.6094542 C158.00466,13.8946302 158.169253,14.3025727 158.210242,14.669593 C158.25123,15.1178181 158.128265,15.5660433 157.75873,15.9330636 Z" id="Shape" fill="#94A389"></path>
                    <path d="M145.809369,13.1203069 L144.249253,0.769498111 C144.659776,0.769498111 145.029311,0.932547201 145.31687,1.25864538 L157.75873,13.6094542 C158.045648,13.8952696 158.210242,14.3025727 158.25187,14.669593 L145.809369,13.1203069 Z" id="Shape" fill="#7F8C76"></path>
                    <path d="M158.538788,8.43280538 L156.485532,8.43280538 C156.156986,8.43280538 155.869427,8.14762933 155.869427,7.82153114 C155.869427,7.49543296 156.157626,7.21025691 156.485532,7.21025691 L158.538788,7.21025691 C158.867335,7.21025691 159.154893,7.49543296 159.154893,7.82153114 C159.154893,8.18855145 158.866694,8.43280538 158.538788,8.43280538 Z M168.393264,4.76452054 L155.664486,4.76452054 C155.335939,4.76452054 155.048381,4.47870508 155.048381,4.15260689 C155.048381,3.82650871 155.335939,3.54133266 155.664486,3.54133266 L168.393264,3.54133266 C168.721811,3.54133266 169.009369,3.82650871 169.009369,4.15260689 C169.009369,4.5196272 168.721811,4.76388113 168.393264,4.76388113 L168.393264,4.76452054 Z" id="Shape" fill="#DDEBF7"></path>
                    <g id="Group" transform="translate(116.097999, 55.483658)">
                        <path d="M0.803754313,7.2444949 C1.00869565,7.00024097 1.2552657,6.79626975 1.54282402,6.63322066 L16.8589869,0.314588834 C17.26951,0.151539743 17.7216618,0.151539743 18.132185,0.274306118 C18.5836963,0.437355209 18.9942195,0.76345339 19.1998012,1.25260066 L22.9771263,10.3015055 C23.3466611,11.1985952 22.936138,12.2580946 22.0331153,12.6251149 L6.71695238,18.9431073 C5.81392961,19.3101276 4.74567288,18.9021852 4.37613803,18.0057349 L0.598812974,8.95619065 C0.310614217,8.38583854 0.434219462,7.73364217 0.803754313,7.2444949 Z" id="Shape" fill="#E37151"></path>
                        <path d="M0.803754313,7.2444949 C1.00869565,7.00024097 1.2552657,6.79626975 1.54282402,6.63322066 L16.8589869,0.314588834 C17.26951,0.151539743 17.7216618,0.151539743 18.132185,0.274306118 L12.1779986,10.6276037 L0.803754313,7.2444949 Z" id="Shape" fill="#DE5833"></path>
                        <path d="M28.0692781,4.71691429 L25.1949758,4.71691429 C24.8664293,4.71691429 24.5788709,4.43173823 24.5788709,4.10564005 C24.5788709,3.77954187 24.8664293,3.49436581 25.1949758,3.49436581 L28.0692781,3.49436581 C28.3978247,3.49436581 28.6847426,3.77954187 28.6847426,4.10564005 C28.6847426,4.47266036 28.3978247,4.71691429 28.0692781,4.71691429 Z M39.5664872,8.79314156 L26.8370683,8.79314156 C26.5085217,8.79314156 26.2209634,8.5079655 26.2209634,8.18186732 C26.2209634,7.85576914 26.5091622,7.57059308 26.8370683,7.57059308 L39.5664872,7.57059308 C39.8950338,7.57059308 40.1825921,7.85576914 40.1825921,8.18186732 C40.1825921,8.54888763 39.8943934,8.79314156 39.5664872,8.79314156 Z" id="Shape" fill="#DDEBF7"></path>
                    </g>
                    <g id="Group" transform="translate(57.817805, 26.710289)">
                        <path d="M39.9494714,7.40306814 L33.7897032,7.40306814 C33.4611567,7.40306814 33.1742388,7.11725267 33.1742388,6.79115449 C33.1742388,6.46505631 33.4611567,6.17988025 33.7897032,6.17988025 L39.9494714,6.17988025 C40.2780179,6.17988025 40.5649358,6.46505631 40.5649358,6.79115449 C40.5649358,7.1581748 40.2780179,7.40306814 39.9494714,7.40306814 Z M36.6640055,10.66405 L34.6113899,10.66405 C34.2828433,10.66405 33.995285,10.3782345 33.995285,10.0521363 C33.995285,9.72603812 34.2828433,9.44086207 34.6113899,9.44086207 L36.6640055,9.44086207 C36.9925521,9.44086207 37.2801104,9.72603812 37.2801104,10.0521363 C37.2801104,10.4191566 36.9925521,10.6634105 36.6640055,10.6634105 L36.6640055,10.66405 Z" id="Shape" fill="#DDEBF7"></path>
                        <path d="M5.70377364,24.4413784 C6.03232022,25.2566239 7.01731953,25.6645663 7.83900621,25.3384681 L30.5874948,15.9628257 C31.4085411,15.6367275 31.8190642,14.658433 31.4905176,13.8431875 L26.1524362,1.04415359 C25.8238896,0.228908135 24.8382498,-0.179034296 24.0172036,0.147063886 L1.26871498,9.52270632 C0.447668737,9.8488045 0.0371456177,10.827099 0.365692202,11.6423445 L5.70377364,24.4413784 Z" id="Shape" fill="#FFC680"></path>
                        <path d="M23.5247039,4.30513541 L23.8116218,5.03853661 L23.5247039,4.30513541 Z" id="Shape" fill="#B37624"></path>
                        <path d="M23.9352271,2.83769359 C23.8942388,2.83769359 23.8116218,2.83769359 23.7706335,2.87797631 L22.2515059,3.48988995 C22.0465645,3.5710948 21.9229593,3.81598814 22.0465645,4.01931994 L22.9905756,6.2617245 C23.0725521,6.42477359 23.1955169,6.50597843 23.3601104,6.50597843 C23.4010987,6.50597843 23.4830752,6.50597843 23.5247039,6.46505631 L25.0438316,5.85378207 C25.2487729,5.77257723 25.3723782,5.52768389 25.2487729,5.32371267 L24.3047619,3.08194752 C24.2637736,2.91889843 24.0998206,2.83769359 23.9352271,2.83769359 Z" id="Shape" fill="#DE5833"></path>
                        <path d="M7.79801794,10.3379518 L2.87045963,12.3757457 C2.66551829,12.45759 2.4183078,12.3757457 2.33633126,12.1717745 L2.17237819,11.8047542 C2.09040166,11.6014224 2.17237819,11.3571684 2.37731953,11.2753242 L7.30487785,9.23689085 C7.50981919,9.15568601 7.75638923,9.23689085 7.83900621,9.44086207 L8.00295928,9.80788237 C8.12592409,10.0118536 8.00295928,10.2151854 7.79801794,10.3379518 Z M6.07330849,13.6801384 L3.81447067,14.6175109 C3.60952933,14.6993551 3.36295928,14.6175109 3.28098275,14.414179 L3.11638923,14.0471587 C3.0344127,13.8431875 3.11638923,13.5989336 3.32197101,13.5170893 L5.58016839,12.5797169 C5.78510973,12.4978727 6.03232022,12.5797169 6.11429676,12.7836881 L6.27824983,13.150069 C6.40185507,13.3540402 6.27824983,13.5989336 6.07330849,13.6801384 Z M21.4304596,15.3106293 L13.8335404,18.4494842 C13.628599,18.530689 13.382029,18.4494842 13.3000524,18.245513 L13.1354589,17.8784927 C13.0534824,17.6745215 13.1354589,17.4302675 13.3410407,17.3484233 L20.9373195,14.2102078 C21.1422609,14.1283636 21.3894714,14.2102078 21.4714479,14.414179 L21.635401,14.7805599 C21.7590062,14.9845312 21.635401,15.2294245 21.4304596,15.3106293 Z M22.0055763,12.4166678 L11.3704017,16.7780712 C11.1648199,16.8599154 10.9182498,16.7780712 10.8362733,16.5740999 L10.5077267,15.8406987 C10.4257502,15.6367275 10.5077267,15.3924736 10.712668,15.3106293 L21.3478427,10.949226 C21.5534244,10.8673818 21.7999945,10.949226 21.881971,11.1531972 L22.2105176,11.8865984 C22.3334824,12.0905696 22.2105176,12.3348236 22.0055763,12.4166678 Z" id="Shape" fill="#CC8729"></path>
                    </g>
                    <g id="Group" transform="translate(0.178054, 4.970410)">
                        <path d="M15.3417805,1.05758116 C15.6703271,1.30183509 15.9168972,1.58765056 16.0808502,1.99495358 L23.9236991,20.8274433 C24.1286404,21.3568733 24.1286404,21.8869427 23.9646874,22.3760899 C23.759746,22.9464421 23.3492229,23.4355893 22.733118,23.6804827 L11.4408502,28.3270621 C10.3328861,28.7759266 9.01805935,28.2458572 8.56654796,27.1454357 L0.723699103,8.27266329 C0.272187716,7.17160237 0.805675638,5.86720964 1.91492063,5.41898449 L13.206548,0.771765697 C13.919921,0.492085888 14.7273912,0.600171277 15.3417805,1.05758116 Z" id="Shape" fill="#60A5DA"></path>
                        <path d="M15.3417805,1.05758116 C15.6703271,1.30183509 15.9168972,1.58765056 16.0808502,1.99495358 L23.9236991,20.8274433 C24.1286404,21.3568733 24.1286404,21.8869427 23.9646874,22.3760899 L11.0303271,15.079803 L15.3417805,1.05758116 Z" id="Shape" fill="#7CB5E0"></path>
                        <path d="M29.0152105,9.16911358 L24.4988157,9.16911358 C24.1702692,9.16911358 23.8827108,8.88393753 23.8827108,8.55783934 C23.8827108,8.23174116 24.1702692,7.9459257 24.4988157,7.9459257 L29.0152105,7.9459257 C29.3437571,7.9459257 29.6313154,8.23174116 29.6313154,8.55783934 C29.6313154,8.92422024 29.3437571,9.16911358 29.0152105,9.16911358 Z M26.9625949,12.0227924 L24.9093389,12.0227924 C24.5807923,12.0227924 24.293234,11.7369769 24.293234,11.4108787 C24.293234,11.0847805 24.5814327,10.7996045 24.9093389,10.7996045 L26.9625949,10.7996045 C27.2911415,10.7996045 27.5780594,11.0847805 27.5780594,11.4108787 C27.5780594,11.777899 27.2911415,12.022153 26.9625949,12.022153 L26.9625949,12.0227924 Z" id="Shape" fill="#DDEBF7"></path>
                    </g>
                </g>
            </g>
        </g>
    </g>
</svg>